<svg xmlns="http://www.w3.org/2000/svg" xmlns:xlink="http://www.w3.org/1999/xlink" width="282" height="43" viewBox="0 0 282 43"><defs><path id="a" d="M.29 17.923h14.437V.217H.29z"/><path id="c" d="M0 42.567h280.744V.175H0z"/></defs><g fill="none" fill-rule="evenodd"><path fill="#0B9BD7" d="M.661 18.925v14.247l36.51-16.014V2.911z"/><path fill="#FED914" d="M53.646.52L40.622 6.235v14.248l13.024-5.71z"/><g transform="translate(.661 .332)"><g transform="translate(23.897 24.644)"><mask id="b" fill="#fff"><use xlink:href="#a"/></mask><path fill="#4A4A4A" d="M6.294 6.044a18.737 18.737 0 0 1-.171 2.03A14.118 14.118 0 0 1 5.79 9.72c-.134.491-.287.93-.46 1.318a7.23 7.23 0 0 1-.56 1.04h5.368V2.589H6.527l-.233 3.455zm8.199 11.88h-2.704v-3.495h-8.57v3.485H.446L.29 12.077h1.074c.19-.156.392-.369.61-.635.218-.267.425-.63.62-1.088.196-.46.363-1.037.503-1.733.14-.696.226-1.555.258-2.577L3.756.217h9.312v11.86h1.659l-.234 5.846z" mask="url(#b)"/></g><path fill="#4A4A4A" d="M48.707 32.913h-5.622v3.808h6.598v2.352h-9.526V24.861h9.507v2.372h-6.58v3.387h5.623zm5.623-1.22h2.615a3.31 3.31 0 0 0 1.079-.156 1.96 1.96 0 0 0 .742-.434c.192-.185.333-.408.424-.669.091-.26.137-.543.137-.849 0-.305-.046-.6-.137-.883a2.095 2.095 0 0 0-.424-.751 2.05 2.05 0 0 0-.742-.523c-.303-.13-.662-.195-1.079-.195H54.33v4.46zm0 2.372v5.007H51.4v-14.21h5.544c.84 0 1.59.116 2.25.35.66.235 1.22.562 1.68.981.458.42.808.917 1.049 1.494.24.576.361 1.202.361 1.879 0 .69-.121 1.311-.361 1.864a3.847 3.847 0 0 1-1.05 1.415c-.459.39-1.018.692-1.678.903-.661.212-1.411.317-2.25.317h-2.617zm21.454-.781h-1.688v5.789h-2.929v-5.789H69.44l-3.094 5.789h-3.65l4.431-7.624-4.217-6.588h3.642l3.162 5.73h1.454v-5.73h2.929v5.73h1.424l3.085-5.73h3.631l-4.138 6.579 4.362 7.633H78.8zm11.636.489h3.552l-1.786-5.32-1.767 5.32zm4.343 2.371h-5.134l-.976 2.929h-3.115L87.83 24.86h2.714l5.32 14.213H92.75l-.986-2.929zm8.355-3.26v3.837h2.509c.378 0 .702-.047.976-.142.273-.094.5-.225.683-.39.182-.167.317-.362.406-.586.087-.225.131-.47.131-.737 0-.306-.039-.581-.117-.825a1.578 1.578 0 0 0-.366-.625 1.598 1.598 0 0 0-.65-.395 2.97 2.97 0 0 0-.956-.137h-2.616zm0-2.069h2.167c.749-.013 1.305-.171 1.67-.473.364-.303.546-.734.546-1.294 0-.644-.187-1.107-.561-1.391-.375-.282-.965-.424-1.772-.424h-2.05v3.582zm-2.928 8.258V24.861h4.978c.827 0 1.565.078 2.216.234.65.156 1.202.395 1.654.717.453.323.798.728 1.035 1.216.238.488.356 1.064.356 1.727 0 .326-.04.638-.122.938a3.016 3.016 0 0 1-1 1.546 3.223 3.223 0 0 1-.908.523 3.12 3.12 0 0 1 1.068.473c.297.212.541.457.733.737.192.28.332.584.42.913.088.329.131.665.131 1.01 0 1.38-.444 2.42-1.332 3.124-.888.702-2.152 1.054-3.792 1.054H97.19zm24.324 0h-2.928v-6.091h-5.71v6.09h-2.928v-14.21h2.928v5.759h5.71v-5.76h2.928z"/><mask id="d" fill="#fff"><use xlink:href="#c"/></mask><path fill="#4A4A4A" d="M124.257 39.073h2.928V24.86h-2.928zm16.057-11.84h-4.354v11.84h-2.927v-11.84h-4.295V24.86h11.576zm10.102 4.412c0-1.49-.267-2.622-.8-3.397-.534-.774-1.295-1.162-2.284-1.162-.99 0-1.75.388-2.284 1.162-.534.775-.8 1.907-.8 3.397v.644c0 .742.07 1.397.21 1.967.14.57.34 1.047.604 1.435.264.387.587.68.971.878a2.83 2.83 0 0 0 1.318.298c.989 0 1.747-.39 2.274-1.172.527-.78.791-1.916.791-3.406v-.644zm2.968.644c0 1.087-.147 2.061-.44 2.923-.293.863-.704 1.593-1.234 2.192a5.38 5.38 0 0 1-1.909 1.38c-.742.323-1.558.484-2.45.484-.891 0-1.708-.16-2.45-.483a5.47 5.47 0 0 1-1.918-1.381c-.537-.6-.955-1.33-1.254-2.192-.3-.862-.45-1.836-.45-2.923v-.625c0-1.08.149-2.053.445-2.919.296-.865.711-1.6 1.244-2.205a5.371 5.371 0 0 1 1.914-1.391c.742-.322 1.558-.483 2.45-.483.89 0 1.708.161 2.45.483.742.322 1.38.786 1.913 1.391.534.605.948 1.34 1.245 2.205.295.866.444 1.84.444 2.919v.625zm5.056-.596h2.615a3.31 3.31 0 0 0 1.079-.156 1.96 1.96 0 0 0 .742-.434c.192-.185.333-.408.424-.669.091-.26.137-.543.137-.849 0-.305-.046-.6-.137-.883a2.095 2.095 0 0 0-.424-.751 2.05 2.05 0 0 0-.742-.523c-.303-.13-.662-.195-1.079-.195h-2.616v4.46zm0 2.372v5.007h-2.929v-14.21h5.544c.84 0 1.59.116 2.25.35.66.235 1.22.562 1.68.981.458.42.808.917 1.049 1.494.24.576.361 1.202.361 1.879 0 .69-.121 1.311-.361 1.864a3.847 3.847 0 0 1-1.05 1.415c-.459.39-1.018.692-1.679.903-.66.212-1.41.317-2.25.317h-2.616zm19.287-6.832h-6.374v11.84h-2.929V24.86h9.303zm10.337-2.373h2.938v14.213h-2.938v-9.439l-5.692 9.439h-2.927V24.86h2.927v9.459zm5.436 12.827c0-.215.039-.416.113-.6a1.36 1.36 0 0 1 .322-.479c.14-.133.308-.24.503-.317.196-.078.414-.117.654-.117.24 0 .46.039.659.117.198.078.367.184.507.317s.247.293.322.478c.076.185.112.386.112.6 0 .216-.036.414-.112.596-.075.183-.182.34-.322.473-.14.134-.309.239-.507.313a1.859 1.859 0 0 1-.659.112c-.24 0-.458-.037-.654-.112a1.495 1.495 0 0 1-.503-.313 1.369 1.369 0 0 1-.322-.473 1.567 1.567 0 0 1-.112-.595m14.554-6.042c0-1.49-.267-2.622-.8-3.397-.534-.774-1.296-1.162-2.285-1.162-.989 0-1.75.388-2.284 1.162-.533.775-.8 1.907-.8 3.397v.644c0 .742.07 1.397.21 1.967.14.57.342 1.047.605 1.435.264.387.587.68.971.878.384.199.823.298 1.318.298.989 0 1.747-.39 2.273-1.172.528-.78.792-1.916.792-3.406v-.644zm2.967.644c0 1.087-.146 2.061-.44 2.923-.292.863-.704 1.593-1.234 2.192a5.367 5.367 0 0 1-1.908 1.38c-.742.323-1.559.484-2.45.484-.892 0-1.708-.16-2.45-.483a5.463 5.463 0 0 1-1.918-1.381c-.537-.6-.955-1.33-1.254-2.192-.3-.862-.45-1.836-.45-2.923v-.625c0-1.08.149-2.053.444-2.919.297-.865.711-1.6 1.245-2.205a5.374 5.374 0 0 1 1.914-1.391c.741-.322 1.558-.483 2.449-.483.892 0 1.708.161 2.45.483a5.37 5.37 0 0 1 1.914 1.391c.533.605.947 1.34 1.244 2.205.295.866.444 1.84.444 2.919v.625zm13.694 6.784h-2.928v-6.091h-5.71v6.09h-2.928v-14.21h2.928v5.759h5.71v-5.76h2.928zm14.281-14.213v14.213h-2.94v-11.84h-3.766l-.166 4.03c-.065 1.439-.204 2.654-.416 3.647-.211.992-.51 1.797-.897 2.415-.388.619-.87 1.065-1.45 1.338-.58.273-1.269.41-2.07.41h-.731V36.72h.39c.455-.045.82-.162 1.094-.351.273-.188.487-.492.644-.908.156-.416.267-.964.332-1.645.065-.68.12-1.53.166-2.552l.272-6.403h9.538zm6.413 8.913h3.552l-1.787-5.32-1.766 5.32zm4.343 2.371h-5.135l-.976 2.929h-3.113l5.29-14.213h2.714l5.32 14.213h-3.115l-.985-2.929zm14.514-15.022c0 .43-.08.822-.239 1.177a2.61 2.61 0 0 1-.679.912 3.174 3.174 0 0 1-1.063.595 4.277 4.277 0 0 1-1.396.215 4.3 4.3 0 0 1-1.406-.215 3.177 3.177 0 0 1-1.064-.595 2.549 2.549 0 0 1-.673-.912 2.89 2.89 0 0 1-.235-1.177h2.001c0 .17.025.332.073.489.05.156.129.293.24.41.11.116.252.211.424.283.173.072.386.107.64.107.247 0 .456-.035.629-.107a1.068 1.068 0 0 0 .654-.693 1.6 1.6 0 0 0 .073-.489h2.021zm-.567 3.739h2.939v14.212H263.7v-9.44l-5.69 9.44h-2.928V24.861h2.928v9.458l5.69-9.458zm17.043 14.212h-2.928v-6.091h-5.71v6.09h-2.928v-14.21h2.928v5.759h5.71v-5.76h2.928z" mask="url(#d)"/></g></g></svg>