<svg xmlns="http://www.w3.org/2000/svg" width="303" height="44" viewBox="0 0 303 44"><g fill="none" fill-rule="evenodd"><path fill="#589AD5" d="M.073 32.162l38.111-15.467V2.92L.074 18.401z"/><path fill="#F5D938" d="M41.946 19.597l13.597-5.52V.305l-13.597 5.52z"/><path fill="#4A4A4A" d="M38.897 43.752v-6.051h-1.895V25.174H27.13v.678c0 5.846-.576 8.86-1.87 11.873h-1.634v6.052h3.085v-3.401h9.152v3.376h3.033zm-5.099-6.051h-5.23a22.499 22.499 0 0 0 1.727-9.38v-.484h3.503v9.864zm18.304 2.65v-2.65h-7.596V34.07h6.537v-2.675h-6.537v-3.57h7.622v-2.65H41.303v15.2l10.8-.024zm3.033-15.177v15.202h3.204V34.65h3.163c1.89.088 3.68-.795 4.654-2.297a4.444 4.444 0 0 0 0-4.882c-.974-1.503-2.763-2.386-4.654-2.298h-6.367zm3.204 6.814v-4.163h2.993c1.242 0 2.25.932 2.25 2.082s-1.008 2.081-2.25 2.081H58.34zm30.79 8.388l-5.23-9.005 4.89-6.197h-3.884l-4.929 6.705v-6.705h-3.15v6.705l-4.89-6.705h-3.831l4.916 6.197-5.374 9.005h3.766l3.713-6.681 1.712 2.045v4.636h3.138v-4.624l1.713-2.045 3.74 6.68 3.7-.011zm12.21-4.394c.055-1.498-.89-2.873-2.38-3.461 1.361-.611 2.221-1.892 2.21-3.292 0-2.566-2.418-4.212-5.425-4.212-2.034-.074-4.023.566-5.57 1.791l1.987 1.876a5.253 5.253 0 0 1 3.504-1.029c1.308 0 2.353.642 2.353 1.816a1.76 1.76 0 0 1-.626 1.452 2.079 2.079 0 0 1-1.61.472h-2.13v2.42h2.013a2.341 2.341 0 0 1 1.767.518c.48.402.747.978.73 1.577 0 1.21-1.203 1.936-2.615 1.936-1.435.045-2.836-.413-3.922-1.283l-2.052 1.925c1.637 1.431 3.846 2.164 6.092 2.02 3.203 0 5.7-1.766 5.7-4.526h-.026zm15.82 4.394l-5.936-15.202h-2.484l-6 15.202h3.385l.942-2.675h5.83l.968 2.687 3.295-.012zm-5.23-5.193h-3.961l2.079-5.518 2 5.53-.118-.012zm20.33 5.193l-5.83-9.162 5.438-6.052h-3.922l-5.792 6.62v-6.608h-3.046v15.202h3.203v-4.563l2.118-2.348 4.223 6.923 3.609-.012zm13.297-15.202h-3.32l-3.112 7.323-3.439-7.323h-3.347l5.23 10.542-.484 1.04c-.279.637-.974 1.03-1.713.97h-1.307v2.65h2.13c1.696-.03 3.178-1.066 3.675-2.566l5.818-12.636h-.131zm13.832 15.202V25.174h-11.975v15.202h3.203V27.825h5.556v12.55h3.216zm6.89 0V25.174h-3.203v15.202h3.203zm13.323-7.795c1.302-.616 2.094-1.88 2.027-3.231 0-2.566-1.988-4.188-5.073-4.188h-6.537v15.214h6.877c3.085 0 5.02-1.683 5.02-4.357a3.472 3.472 0 0 0-1.007-2.627 4.51 4.51 0 0 0-1.307-.81zm-6.432-1.21v-3.546h3.137c.74-.1 1.474.211 1.879.793.404.582.404 1.33 0 1.911-.405.583-1.139.893-1.879.794l-3.137.048zm0 6.403v-3.777h3.347c.76-.056 1.49.287 1.89.89a1.76 1.76 0 0 1 0 1.961c-.4.602-1.13.946-1.89.89l-3.347.036zm23.794 2.65v-15.25h-10.106l-.13 8.896c-.092 2.905-1.216 3.63-2.694 3.63h-.523v2.651h1.4c3.19 0 4.941-1.924 5.046-6.196l.183-6.366h3.739v12.587l3.085.048zm6.917 0v-15.25h-3.203v15.202l3.203.048zm21.546-7.6v-1.066c0-2.42-.484-3.909-1.634-4.998-2.474-2.218-6.404-2.218-8.878 0-1.307 1.21-1.621 2.42-1.621 5.446v.835c0 1.683-.118 4.2 1.621 5.846 1.17 1.1 2.778 1.705 4.445 1.67 1.666.048 3.277-.558 4.433-1.67 1.751-1.682 1.634-3.885 1.634-6.052v-.012zm-3.203-.279c0 3.098-.144 3.837-.81 4.55a2.718 2.718 0 0 1-2.054.812 2.967 2.967 0 0 1-2.078-.811c-.876-.811-.785-2.627-.785-4.49 0-1.864 0-3.305.785-4.055a2.802 2.802 0 0 1 2.078-.81 2.717 2.717 0 0 1 2.053.81c.64.666.81 1.489.81 3.994zm18.303 7.88v-15.25h-3.203v6.208h-5.556v-6.209h-3.203v15.202h3.203V34.07h5.556v6.366l3.203-.012zm15.69 0v-15.25h-10.107l-.17 8.895c-.091 2.905-1.216 3.63-2.693 3.63h-.536v2.651h1.412c3.177 0 4.929-1.924 5.046-6.196l.183-6.366h3.74v12.587l3.124.048zm16.394 0l-6-15.202h-2.51l-5.976 15.201h3.347l.994-2.687h5.83l.968 2.687h3.347zm-5.23-5.193h-4.078l2.078-5.531 2.014 5.53h-.013zm16.997-13.991h-2.053c-.042.37-.245.71-.564.938a1.566 1.566 0 0 1-1.122.272c-.836.1-1.604-.438-1.726-1.21h-2.026c.196 1.778 1.814 3.13 3.745 3.13s3.55-1.352 3.746-3.13zm2.445 19.171V25.174h-2.863l-6.394 9.683v-9.683h-3.203v15.202h3.033l6.394-9.755v9.755l3.033.036zm15.689 0V25.174h-3.203v6.21h-5.557v-6.21h-3.203v15.202h3.203V34.07h5.557v6.366l3.203-.024zm-91.676-1.815c-.035-1.017-.928-1.828-2.026-1.84-1.103.013-1.986.85-1.974 1.872.012 1.02.914 1.84 2.017 1.831 1.103-.009 1.99-.842 1.983-1.863z"/></g></svg>