<svg xmlns="http://www.w3.org/2000/svg" width="122" height="79" viewBox="0 0 122 79"><g fill="none"><g fill="#FF7572"><path d="M60.93 57.311l-11.142 1.477c.422 1.95 2.112 2.9 4.33 2.9 1.585 0 3.275-.317 4.542-.897.264-.105.581.053.687.317l1.161 3.058c.106.264-.052.58-.316.686-1.638.633-4.067 1.107-6.496 1.107-6.179 0-9.242-4.06-9.242-9.334 0-5.484 3.169-9.28 8.555-9.28 5.229 0 7.975 3.48 7.975 8.384a5.409 5.409 0 0 1-.053 1.582zm-8.026-6.222c-1.901 0-3.433 1.318-3.433 4.27l6.285-.79c0-2.215-1.11-3.48-2.852-3.48zm24.821 14.817c-2.113 0-4.225-.474-5.598-1.054-.264-.106-.37-.422-.264-.686l1.32-3.111c.105-.264.422-.422.686-.264 1.004.475 2.694.897 3.697.897 1.268 0 2.06-.58 2.06-1.477 0-1.002-1.004-1.476-2.271-1.898-2.113-.738-5.228-1.846-5.228-5.484 0-3.322 2.535-5.484 6.918-5.484 2.165 0 3.96.421 5.334 1.054.264.106.37.422.264.686l-1.215 2.69c-.106.263-.422.368-.686.263-.793-.37-2.06-.739-2.958-.739-1.267 0-2.06.58-2.06 1.477 0 1.107 1.004 1.53 2.324 2.004 2.165.738 5.281 1.74 5.281 5.484 0 3.428-2.535 5.642-7.604 5.642zm-42.46-18.561c-1.214 0-2.429.316-3.432.738V40.12c0-.316-.264-.58-.581-.527l-4.436.58c-.264.053-.476.264-.476.527v24.31c0 .316.212.527.528.527h4.436c.317 0 .529-.21.529-.527V52.09a4.689 4.689 0 0 1 2.006-.474c1.743 0 2.588.844 2.588 2.426V65.01c0 .316.211.527.528.527h4.436c.317 0 .528-.21.528-.527V53.462c-.053-3.955-2.376-6.117-6.654-6.117zm52.599 1.476v16.136c0 .317.211.528.528.528h4.436c.317 0 .528-.211.528-.528V48.241c0-.316-.264-.58-.58-.527l-4.437.58c-.264.052-.475.263-.475.527zm-24.029-5.59v21.726c0 .317.212.528.529.528H68.8c.317 0 .528-.211.528-.528V42.651c0-.316-.264-.58-.581-.527l-4.436.58c-.317.053-.476.264-.476.527z"/><path stroke="#FF7572" d="M102.017 39.962c0-10.547-8.555-19.09-19.117-19.09-9.4 0-17.216 6.75-18.8 15.662-.053.37.264.633.58.633l4.7-.633c.212-.052.37-.158.423-.369a13.642 13.642 0 0 1 13.572-9.808c7.394.264 13.203 6.539 13.203 13.921v4.64c0 .317.211.528.528.528h4.7c7.393 0 13.678 5.8 13.942 13.183.211 7.7-5.968 14.027-13.625 14.027H64.416c-.316 0-.528.211-.528.528v4.43c0 .315.212.526.528.526h37.707c10.562 0 19.117-8.542 19.117-19.089-.106-10.546-8.66-19.089-19.223-19.089z"/></g><path fill="#63AEFF" stroke="#63AEFF" d="M52.112 1.098c-14.206 0-25.719 11.496-25.719 25.68C12.187 26.779.675 38.276.675 52.46c0 14.185 11.512 25.68 25.718 25.68h31.37c.316 0 .527-.21.527-.527v-4.43c0-.316-.21-.527-.528-.527h-31c-11.037 0-20.331-8.7-20.595-19.722-.264-11.39 8.925-20.671 20.226-20.671h4.964c.317 0 .528-.21.528-.527v-4.588c0-10.81 8.82-20.25 19.646-20.566 8.29-.263 15.526 4.535 18.853 11.496.106.264.422.37.686.264l4.067-1.846c.264-.106.37-.422.264-.686C71.229 7.11 62.41 1.098 52.11 1.098z"/></g></svg>