<svg xmlns="http://www.w3.org/2000/svg" width="159" height="37" viewBox="0 0 159 37"><path d="M8.23 12.266v16.257c0 1.952.095 3.912.198 5.863.044.864-.276 1.123-1.105 1.105-1.847-.043-3.695-.077-5.543 0-1.079.044-1.13-.509-1.13-1.32V1.862C.65.843.994.636 1.952.592 7.064.36 11.243 2.148 14.04 6.439a62.536 62.536 0 0 1 3.686 7.365c1.511 3.16 2.979 6.337 4.49 9.497.195.31.42.599.673.864l.303-.095c.074-.38.129-.763.164-1.149V4.72c0-1.01-.113-2.02-.19-3.03-.06-.743.19-1.115 1.01-1.106 1.922.035 3.845.035 5.767 0 .76 0 .967.302.967 1.01V34.5c0 .328-.397.923-.613.932-2.693 0-5.404.32-7.951-1.053a13.141 13.141 0 0 1-5.509-6.105C14.36 23.24 11.942 18.18 9.49 13.138a8.263 8.263 0 0 0-.811-1.08l-.45.208zm42.946 23.683a14.557 14.557 0 0 1-16.137-12.804c-.778-4.887-.76-9.765 1.346-14.385C38.768 3.52 43 .74 48.672.385a28.26 28.26 0 0 1 7.503.458A13.011 13.011 0 0 1 66.12 9.65a24.244 24.244 0 0 1 0 17.017c-2.184 5.75-6.562 8.833-12.718 9.282-.794.052-1.554 0-2.227 0zm-7.961-18.891c.104 3.505.268 5.94 1.312 8.202 1.045 2.262 2.755 4.006 5.492 4.317 3.315.337 5.81-.863 7.321-3.894a16.405 16.405 0 0 0 1.416-5.802 19.427 19.427 0 0 0-.75-7.77c-1.063-3.454-3.455-5.37-6.563-5.388-3.678 0-6.044 1.632-7.166 5.301a41.038 41.038 0 0 0-1.062 5.034zm58.85-3.946V2.026c0-.863.224-1.278 1.2-1.252 2.037.07 4.075.06 6.104 0 .924 0 1.148.32 1.14 1.191 0 6.45-.052 12.891 0 19.34.01 1.538.218 3.067.621 4.55.76 2.738 2.59 3.757 6.044 3.688a4.81 4.81 0 0 0 4.542-3.886c.3-1.162.463-2.356.483-3.557.046-6.637.046-13.27 0-19.901 0-1.088.32-1.46 1.407-1.416 2.03.077 4.076.051 6.105 0 .803 0 1.14.198 1.14 1.079 0 7.01.103 14.03-.052 21.032-.113 5.18-1.969 9.558-7.029 11.803a15.714 15.714 0 0 1-5.18 1.209c-3.143.216-6.32.31-9.333-1.045-3.937-1.77-6.398-4.792-6.847-8.997-.45-4.204-.31-8.495-.432-12.743l.087-.009zM99.474.8l-2.478 7.77c-2.728 8.565-5.474 17.122-8.159 25.695-.337 1.062-.777 1.511-1.951 1.468-2.59-.095-5.18-.052-7.77 0a1.278 1.278 0 0 1-1.46-1.045A3917.443 3917.443 0 0 0 68.91 6.706c-.656-1.917-1.183-3.834-1.805-5.897 2.858 0 5.56 0 8.254.043.277 0 .665.63.778 1.027 1.675 6.243 3.315 12.485 4.964 18.736.57 2.141 1.131 4.317 1.727 6.424.145.313.334.603.561.863.251-.28.458-.598.613-.941 2.199-8.162 4.38-16.327 6.545-24.495C90.987.8 90.96.791 92.705.791l6.77.009zm56.458 8.565a12.243 12.243 0 0 0-8.945-2.59 7.874 7.874 0 0 0-2.478.656 3.03 3.03 0 0 0-.13 5.362 39.337 39.337 0 0 0 4.171 1.571c2.798.915 5.638 1.727 7.77 3.963 1.115 1.2 1.952 2.495 1.952 6.044 0 3.548-1.951 8.556-5.577 10.188a16.405 16.405 0 0 1-14.091.069c-3.644-1.675-4.81-4.835-3.454-8.91l1.399 1.13a12.001 12.001 0 0 0 10.499 2.453 3.177 3.177 0 0 0 2.763-2.763 3.28 3.28 0 0 0-1.874-3.764 67.25 67.25 0 0 0-6.562-2.444c-4.576-1.476-7.252-4.697-7.304-9.497a9.247 9.247 0 0 1 4.844-8.634c4.317-2.435 8.867-2.59 13.451-1.339 3.653 1.045 5.224 5.017 3.566 8.505z" fill="#7FB812"/></svg>